<?xml version="1.0" standalone="no"?>
<!DOCTYPE svg PUBLIC "-//W3C//DTD SVG 20010904//EN"
 "http://www.w3.org/TR/2001/REC-SVG-20010904/DTD/svg10.dtd">
<svg version="1.0" xmlns="http://www.w3.org/2000/svg"
 width="2855.000000pt" height="890.000000pt" viewBox="0 0 2855.000000 890.000000"
 preserveAspectRatio="xMidYMid meet">

<g transform="translate(0.000000,890.000000) scale(0.100000,-0.100000)"
fill="#000000" stroke="none">
<path d="M17609 4066 c-407 -59 -730 -221 -997 -501 -299 -313 -472 -730 -512
-1235 -13 -155 -8 -199 26 -240 30 -35 71 -49 299 -99 481 -107 894 -144 1226
-111 752 76 1350 529 1577 1195 67 194 63 211 -76 356 -330 344 -651 543
-1005 620 -122 27 -402 34 -538 15z m470 -216 c141 -114 151 -127 151 -206 0
-132 -67 -214 -175 -214 -78 0 -153 50 -215 142 -61 92 -59 97 85 291 27 37
51 67 52 67 1 0 47 -36 102 -80z"/>
<path d="M11825 3266 c-354 -59 -670 -220 -938 -476 -170 -163 -304 -349 -386
-537 -68 -156 -63 -183 69 -357 371 -493 676 -685 1207 -762 161 -24 458 -24
613 0 339 51 627 148 990 332 211 107 338 182 362 214 47 64 38 187 -28 393
-195 602 -704 1050 -1340 1178 -138 27 -427 35 -549 15z m641 -331 c51 -39 69
-87 69 -185 0 -72 -4 -92 -25 -130 -32 -57 -90 -97 -164 -112 l-58 -13 -89 93
c-49 51 -92 104 -95 119 -16 60 84 184 189 234 72 35 121 33 173 -6z"/>
</g>
</svg>
